<svg id="Layer_1" data-name="Layer 1" xmlns="http://www.w3.org/2000/svg" viewBox="0 0 375.78 128.83"><path d="M144,61.68a16.07,16.07,0,0,1,6.27,6.24,18.57,18.57,0,0,1,2.27,9.3,18.68,18.68,0,0,1-2.27,9.32A16,16,0,0,1,144,92.82,18.48,18.48,0,0,1,134.88,95a16.85,16.85,0,0,1-6.53-1.24,12.6,12.6,0,0,1-5-3.7v4.48h-7.73V46.34h8.12V64.09a13.7,13.7,0,0,1,4.91-3.45,16.12,16.12,0,0,1,6.21-1.17A18.48,18.48,0,0,1,144,61.68Zm-2.6,23.4a10.85,10.85,0,0,0,2.89-7.86,10.89,10.89,0,0,0-2.89-7.87,9.84,9.84,0,0,0-7.38-3,10.55,10.55,0,0,0-5.27,1.33A9.63,9.63,0,0,0,125,71.5a12.63,12.63,0,0,0,0,11.44,9.67,9.67,0,0,0,3.7,3.8A10.45,10.45,0,0,0,134,88.07,9.8,9.8,0,0,0,141.35,85.08Z" style="fill:#333"/><path d="M155.74,52.74a4.8,4.8,0,0,1,0-7,5.25,5.25,0,0,1,3.71-1.4,5.38,5.38,0,0,1,3.7,1.33,4.3,4.3,0,0,1,1.5,3.35,4.93,4.93,0,0,1-1.46,3.61,5.09,5.09,0,0,1-3.74,1.46A5.21,5.21,0,0,1,155.74,52.74Zm-.39,7.12h8.13V94.57h-8.13Z" style="fill:#333"/><path d="M188.06,59.47v7.74a10.32,10.32,0,0,0-1.89-.2,9.83,9.83,0,0,0-7.41,2.76c-1.77,1.85-2.66,4.5-2.66,8V94.57H168V59.86h7.74v5.07Q179.22,59.47,188.06,59.47Z" style="fill:#333"/><path d="M225.37,46.34V94.57h-7.8V90.09a12.57,12.57,0,0,1-5,3.7A16.9,16.9,0,0,1,206.06,95a18.35,18.35,0,0,1-9-2.21,16,16,0,0,1-6.27-6.28,20.15,20.15,0,0,1,0-18.62,16.07,16.07,0,0,1,6.27-6.24,18.35,18.35,0,0,1,9-2.21,16.53,16.53,0,0,1,6.31,1.17,12.62,12.62,0,0,1,4.87,3.51V46.34ZM212.3,86.74a9.69,9.69,0,0,0,3.71-3.8,12.71,12.71,0,0,0,0-11.44,9.65,9.65,0,0,0-3.71-3.81,11.09,11.09,0,0,0-10.53,0,9.63,9.63,0,0,0-3.7,3.81,12.63,12.63,0,0,0,0,11.44,9.67,9.67,0,0,0,3.7,3.8,11.09,11.09,0,0,0,10.53,0Z" style="fill:#333"/><path d="M235.25,93.92a20.84,20.84,0,0,1-6.44-2.79L231.93,85a19.85,19.85,0,0,0,5.63,2.5,23.23,23.23,0,0,0,6.46,1c4.86,0,7.28-1.28,7.28-3.84A2.55,2.55,0,0,0,249.45,82a32.11,32.11,0,0,0-5.95-1.37,48,48,0,0,1-7-1.49,10.76,10.76,0,0,1-4.68-3,8.23,8.23,0,0,1-2-5.88,9.25,9.25,0,0,1,4.13-7.9q4.13-3,11.15-3a32.27,32.27,0,0,1,7.15.81,20.36,20.36,0,0,1,5.85,2.18L255,68.64a19.19,19.19,0,0,0-9.95-2.6,10.93,10.93,0,0,0-5.42,1.07,3.2,3.2,0,0,0-1.86,2.83,2.82,2.82,0,0,0,2,2.76,31.84,31.84,0,0,0,6.14,1.53,47.28,47.28,0,0,1,6.82,1.49,10.79,10.79,0,0,1,4.59,2.86,8,8,0,0,1,1.91,5.72A9,9,0,0,1,255,92.1Q250.78,95,243.5,95A31,31,0,0,1,235.25,93.92Z" style="fill:#333"/><path d="M270.09,92.75a16.51,16.51,0,0,1-6.6-6.34,19,19,0,0,1,0-18.36,16.62,16.62,0,0,1,6.6-6.3,21,21,0,0,1,19,0,16.62,16.62,0,0,1,6.6,6.3,19,19,0,0,1,0,18.36,16.51,16.51,0,0,1-6.6,6.34,21,21,0,0,1-19,0ZM287,85.08a10.74,10.74,0,0,0,2.92-7.86A10.78,10.78,0,0,0,287,69.35a10.64,10.64,0,0,0-14.79,0,10.85,10.85,0,0,0-2.89,7.87,10.81,10.81,0,0,0,2.89,7.86,10.64,10.64,0,0,0,14.79,0Z" style="fill:#333"/><path d="M331.25,63.31c2.65,2.55,4,6.35,4,11.37V94.57h-8.13V75.72q0-4.55-2.14-6.86a8,8,0,0,0-6.11-2.3,9.43,9.43,0,0,0-7.09,2.69q-2.6,2.7-2.6,7.77V94.57H301V59.86h7.73v4.49a12.7,12.7,0,0,1,5.07-3.64,18.15,18.15,0,0,1,6.89-1.24Q327.29,59.47,331.25,63.31Z" style="fill:#333"/><path d="M375.78,59.86V89.31q0,18.33-18.72,18.33a34.92,34.92,0,0,1-9.49-1.27,20.26,20.26,0,0,1-7.41-3.67l3.64-6.11a17.45,17.45,0,0,0,5.75,3,22.52,22.52,0,0,0,7.05,1.14c3.82,0,6.61-.87,8.39-2.6s2.66-4.38,2.66-7.93V88.4a13.32,13.32,0,0,1-5.07,3.44A17.84,17.84,0,0,1,356,93a18.81,18.81,0,0,1-8.94-2.11,15.83,15.83,0,0,1-6.3-6,17.76,17.76,0,0,1,0-17.52,15.73,15.73,0,0,1,6.3-5.88A19.16,19.16,0,0,1,356,59.47a18.21,18.21,0,0,1,6.86,1.24A12.61,12.61,0,0,1,368,64.48V59.86Zm-10.95,23.5a9.38,9.38,0,0,0,2.95-7.18,9.2,9.2,0,0,0-2.95-7.09,12,12,0,0,0-15.21,0,9.17,9.17,0,0,0-3,7.09,9.35,9.35,0,0,0,3,7.18,11.86,11.86,0,0,0,15.21,0Z" style="fill:#333"/><path d="M122.19,28.91,93.35,0l-38,57L0,106.22l19.43-5.51h0l1.83-.53v28.65L50.1,100H78.72l25.07-23.47V28.91Zm-17.48-1.5,6.85-7,7,7ZM92.11,4.55,88,27.9,59.78,53ZM22.76,125.21V100L48,100ZM78.13,98.5H27.2l17-4.82,56.07-15.91Zm24.16-22.86L5.89,103,88.7,29.32,102.29,43ZM89.53,28,94,2.73,110.5,19.31l-8.21,8.43V40.87Z" style="fill:#41b1b0"/></svg>